<?xml version="1.0" standalone="no"?>
<!DOCTYPE svg PUBLIC "-//W3C//DTD SVG 20010904//EN"
 "http://www.w3.org/TR/2001/REC-SVG-20010904/DTD/svg10.dtd">
<svg version="1.0" xmlns="http://www.w3.org/2000/svg"
 width="196.000000pt" height="196.000000pt" viewBox="0 0 196.000000 196.000000"
 preserveAspectRatio="xMidYMid meet">
<metadata>
Created by potrace 1.11, written by Peter Selinger 2001-2013
</metadata>
<g transform="translate(0.000000,196.000000) scale(0.100000,-0.100000)"
fill="#000000" stroke="none">
<path d="M0 980 l0 -980 980 0 980 0 0 980 0 980 -980 0 -980 0 0 -980z m1124
499 c129 -34 260 -141 319 -262 103 -211 67 -429 -97 -593 -83 -82 -152 -119
-269 -142 -248 -49 -502 103 -577 346 -27 87 -27 227 0 314 69 224 285 369
520 352 36 -3 82 -10 104 -15z"/>
<path d="M848 1401 c-74 -24 -115 -50 -171 -110 -55 -59 -82 -111 -102 -193
-39 -167 7 -333 125 -441 88 -82 146 -102 290 -102 109 0 118 2 181 32 73 36
154 114 188 181 82 161 62 375 -49 511 -99 120 -301 173 -462 122z m272 -144
c34 -12 35 -13 35 -67 0 -44 -3 -54 -15 -51 -8 2 -42 5 -75 8 -120 10 -165
-34 -165 -163 0 -124 44 -170 154 -161 34 3 71 8 84 12 21 7 22 5 22 -49 l0
-55 -57 -17 c-119 -35 -257 0 -314 79 -41 56 -52 107 -47 217 3 82 7 102 31
142 48 82 118 117 237 117 41 0 91 -5 110 -12z"/>
</g>
</svg>
