<?xml version="1.0" encoding="utf-8"?>
<!-- Generator: Adobe Illustrator 22.1.0, SVG Export Plug-In . SVG Version: 6.00 Build 0)  -->
<svg version="1.1" id="Layer_1" xmlns="http://www.w3.org/2000/svg" xmlns:xlink="http://www.w3.org/1999/xlink" x="0px" y="0px"
	 viewBox="0 0 67 236" style="enable-background:new 0 0 67 236;" xml:space="preserve">
<style type="text/css">
	.st0{fill:#FFFFFF;}
</style>
<g>
	<circle class="st0" cx="56.1" cy="11.3" r="7.3"/>
	<g>
		<polygon class="st0" points="22.4,26.5 47.4,36.2 22.4,46 22.4,59.7 63,42.8 63,29.7 22.4,12.8 		"/>
		<path class="st0" d="M21.4,171.8c0,11.8,8.7,21.5,21.5,21.5c12.9,0,21.5-9.7,21.5-21.4c0-8.9-3.7-16-11.5-19.6l-3.5,11
			c4,2.2,4.7,5.7,4.7,8.7c0,4.4-3,7.7-7.8,8.7v-29.8H43C29.7,151.1,21.4,160.3,21.4,171.8z M38.3,180.4c-4.1-1.2-6.4-4.9-6.4-8.6
			c0-3.7,2-7,6.4-8.2V180.4z"/>
		<path class="st0" d="M38.6,206.8l-1.9,9.5c-0.6,2.6-1.7,3.1-2.8,3.1c-1.5,0-3.2-1.1-3.2-4.6c0-4,2.3-6.4,4.8-6.8l-3.7-11.4
			c-6.3,2.1-10.3,8.6-10.3,18.1c0,10.3,5.4,17.5,13.7,17.5c6.4,0,10.4-4.3,11.8-11.8l1.6-8.3c0.6-3,1.6-4,3-4c1.8,0,3.2,1.9,3.2,5.3
			c0,3.5-1.3,6.6-4.8,7.2l4,12.3c7.3-2,10.4-9.8,10.4-18.8c0-10.7-4.7-18.4-13.7-18.4C44.8,195.5,40.2,199.1,38.6,206.8z"/>
		<path class="st0" d="M43,56.8C29.7,57,21.5,66.2,21.5,77.7c0,11.8,8.7,21.5,21.5,21.5c2.6,0,5-0.4,7.2-1.1
			c1.7,0.6,3.6,1.9,3.6,5.2c0,6.4-7.2,6.3-7.2,6.3l-46.5-0.1v12.9l46.9,0.1c0,0,6.8-0.2,6.8,6c0,6.2-6.8,6.3-6.8,6.3L0.1,135V148
			l46.8-0.1c0,0,17.4,0.1,17.6-19.1c0-5.8-1.7-9.8-3.9-12.7c2.2-2.8,3.9-7,3.9-12.8c0-4.7-2-8.9-4.5-11.9c2.9-3.7,4.6-8.4,4.6-13.6
			c0-8.9-3.7-16-11.5-19.6l-3.5,11c4,2.2,4.7,5.7,4.7,8.7c0,4.4-3,7.7-7.8,8.7V56.8H43z M38.4,86.3c-4.1-1.2-6.4-4.9-6.4-8.6
			c0-3.7,2-7,6.4-8.2V86.3z"/>
	</g>
</g>
</svg>
